<svg width="960" height="740" viewBox="0 0 960 740" fill="none" xmlns="http://www.w3.org/2000/svg">
<mask id="mask0_1_117" style="mask-type:luminance" maskUnits="userSpaceOnUse" x="-117" y="0" width="1215" height="740">
<path d="M1097.08 0H-117V740H1097.08V0Z" fill="white"/>
</mask>
<g mask="url(#mask0_1_117)">
<path d="M189.777 408.107C189.926 404.453 190.278 400.108 193.848 399.928C207.587 399.277 212.316 400.184 220.505 399.291C223.827 398.918 225.156 397.271 225.436 391.749C225.664 387.362 225.905 337.332 225.717 320.994C225.684 318.053 226.205 317.714 229.514 317.098C233.254 316.406 233.436 316.406 233.417 312.773C233.944 294.228 233.384 275.829 233.827 257.284C234.276 238.96 232.837 242.51 258.126 242.295C272.164 242.171 269.285 242.731 270.223 259.546C270.405 263.062 271.226 263.698 274.594 263.657C287.154 263.415 299.753 263.435 312.273 262.903C324.182 263.415 320.664 278.112 321.622 286.783C322.722 305.528 319.543 302.29 337.263 301.812C341.673 301.695 341.074 304.795 341.321 309.514C342.122 325.72 342.774 376.823 343.184 389.583C343.464 398.516 342.754 397.229 349.093 396.731C359.451 395.921 377.3 396.994 392.472 397.111C398.081 397.153 397.651 395.638 396.98 391.811C395.912 385.078 402.602 385.971 406.902 384.739C409.331 384.068 410.4 379.681 410.752 373.723C411.481 361.412 411.012 301.314 410.25 281.302C410.211 280.077 410.582 278.846 411.39 277.967C412.66 276.562 414.491 275.988 416.562 275.843C421.312 275.531 519.477 276.14 563.306 279.517C566.987 280.41 567.996 283.288 568.146 286.707C568.296 290.499 567.788 367.509 567.586 376.228C567.436 382.497 567.397 381.964 571.677 381.902C579.638 381.763 578.068 382.359 578.107 391.908C578.126 395.624 582.725 394.489 585.246 394.447C612.868 394.925 640.306 394.745 667.986 393.852C683.386 394.551 698.695 392.759 714.075 392.586C717.202 391.97 725.834 395.444 724.264 389.23C722.883 383.666 722.342 383.196 716.994 382.739C696.643 379.459 676.116 379.715 655.745 380.49C650.886 380.829 646.847 382.774 644.436 387.659C643.785 391.451 636.085 394.572 637.355 388.711C644.814 364.09 672.383 380.912 684.526 371.937C689.764 325.838 677.764 232.725 632.645 212.575C625.805 209.26 601.565 208.202 608.496 221.425C614.998 238.856 619.747 264.01 601.168 275.151C589.038 285.793 571.697 280.811 561.716 269.469C549.619 254.606 532.108 226.491 539.046 211.959C549.078 190.916 580.445 189.463 596.275 205.247C599.357 207.448 601.695 212.873 605.637 209.454C677.373 182.536 695.666 319.562 692.363 371.204C692.773 380.573 727.052 371.536 728.225 383.134C729.404 387.14 729.834 393.735 735.032 393.437C747.292 392.005 759.611 392.344 771.923 392.544C778.412 392.302 779.46 400.523 779.232 409.775C779.03 418.334 782.451 532.372 782.542 582.444C782.464 626.855 784.861 672.414 784.6 717.428C784.6 717.428 831.752 715.698 840.872 717.441C845.152 717.268 844.65 713.912 843.471 709.843C838.22 691.755 823.4 604.774 819.022 557.228C818.26 538.129 843.81 532.649 857.77 531.514C861.959 528.476 852.702 523.93 858.122 519.605C867.731 510.609 864.33 525.501 871.359 527.867C873.19 529.078 874.76 527.646 876.271 526.636C889.658 523.217 905.188 531.044 919.09 526.636C919.409 525.619 918.497 525.286 918.159 524.608C912.908 517.875 921.299 507.537 927.129 513.031C928.477 515.495 930.647 515.952 933.018 516.09C938.119 517.107 946.848 514.263 948.698 521.231C948.848 526.511 956.007 525.757 955.929 531.639C957.336 537.396 965.088 537.174 969.479 539.14C983.068 543.769 982.697 555.021 981.707 567.691C976.827 606.068 967.649 699.554 966.189 707.837C965.518 711.608 964.808 715.359 964.059 719.13C966.938 720.618 971.199 718.535 972.769 721.517C973.088 722.742 972.078 722.922 971.446 722.922C961.727 720.797 955.187 730.25 946.008 732.291C918.777 742.477 872.349 742.996 848.669 724.292C846.839 721.393 844.35 721.04 841.302 721.22C822.143 722.389 706.805 722.507 668.494 720.043C685.523 713.594 701.125 718.417 718.264 717.58C739.104 716.134 760.614 720.465 781.063 717.704C780.483 635.546 775.832 424.59 775.343 401.699C775.291 396.516 775.063 396.357 769.923 396.274C718.043 397.963 665.966 395.7 613.767 399.236C563.697 398.419 513.679 396.399 463.518 397.824C458.131 401.201 469.271 413.629 471.101 418.673C472.319 420.812 474.378 421.967 477.049 421.469C502.259 423.061 527.77 421.448 552.929 422.763C554.036 424.368 551.137 424.943 550.199 425.206C526.089 425.399 502.038 424.465 477.948 424.59C469.459 426.216 503.68 466.039 508.129 470.828C527.998 491.49 558.876 485.359 584.276 487.103C601.285 487.186 613.806 499.635 625.707 510.928C643.524 522.027 658.416 550.038 644.215 569.732C624.157 594.055 591.077 596.518 562.837 599.279C559.528 599.079 559.456 603.763 559.059 606.282C557.358 635.248 558.147 664.734 556.147 693.444C552.759 696.357 553.287 689.354 553.339 687.05C553.756 660.941 552.746 634.736 554.987 608.704C555.827 598.006 555.397 599.632 546.929 599.176C540.317 597.75 541.398 604.815 541.528 609.479C542.427 631.221 544.069 686.711 543.847 692.53C541.567 693.921 540.909 691.617 540.838 688.164C540.727 683.278 538.968 612.953 537.997 605.632C536.616 595.287 528.897 603.743 487.739 580.596C474.039 569.912 457.779 556.751 451.18 540.489C464.971 550.834 475.44 568.604 491.12 577.634C524.5 603.244 608.158 600.331 637.896 569.718C652.645 553.893 642.026 530.462 628.027 518.63C602.855 496.036 568.048 509.004 539.229 500.368C535.046 497.213 541.489 496.216 543.828 497.234C566.107 500.666 588.888 497.31 611.017 503.482C599.936 489.131 580.296 492.265 564.667 490.501C552.316 490.418 540.128 490.681 528.017 487.56C527.099 487.387 526.07 486.847 524.988 488.196C534.187 496.832 529.809 497.586 522.428 490.48C508.839 480.377 498.24 467.133 487.869 453.591C471.961 433.343 455.03 394.274 442.21 380.255C428.432 365.225 418.66 374.892 411.742 391.154C403.781 407.214 405.39 427.247 408.993 444.56C411.52 472.136 428.94 494.369 437.33 519.529C430.842 518.256 430.51 507.433 424.881 503.005C424.171 544.876 426.53 699.914 425.969 708.37C425.8 711.567 425.272 714.051 428.601 715.656C430.901 719.725 421.37 719.926 419.07 719.33C390.902 720.043 362.721 720.777 334.533 720.777C291.193 722.728 247.957 718.182 204.636 718.777C199.496 718.638 191.887 720.147 192.917 712.265C192.226 667.834 189.685 410.314 189.777 408.107ZM557.997 256.986C566.609 268.777 577.618 280.929 591.748 273.919C595.526 272.05 591.377 266.155 587.657 260.695C583.716 252.461 572.908 268.002 563.378 252.758C547.268 228.041 576.165 230.795 549.176 213.426C534.818 211.558 544.147 238.068 557.997 256.986ZM564.329 237.59C564.798 245.949 569.957 255.99 578.537 253.63C585.898 253.589 564.928 219.142 564.329 237.59ZM550.108 206.32C572.218 221.287 587.976 252.239 596.256 265.262C601.415 277.019 608.946 254.384 608.438 248.828C609.187 216.083 579.546 186.266 550.108 206.32ZM855.451 551.588C847.679 546.945 857.62 537.728 852.611 536.42C815.14 543.548 829.12 556.972 858.109 555.477C857.992 553.457 856.611 552.481 855.451 551.588ZM906.778 531.957C906.778 531.812 906.778 531.659 906.778 531.514C904.517 531.715 888.238 530.109 895.241 534.891C900.928 537.375 907.97 534.04 912.309 539.797C915.279 543.132 919.54 538.427 921.729 536.081C924.217 529.431 910.328 532.884 906.778 531.957ZM956.118 541.126C951.389 544.087 960.626 548.571 957.278 555.339C983.068 557.982 976.469 539.818 956.118 541.126ZM851.321 720.182C854.76 728.465 865.34 728.9 872.499 731.558C898.759 739.598 927.09 738.332 951.389 724.472C956.548 721.413 961.649 716.473 962.378 710.515C965.597 684.226 975.518 581.648 976.808 567.033C977.427 559.906 978.736 556.73 969.147 558.854C965.069 558.896 934.608 568.507 938.399 561.117C943.669 558.238 958.939 559.47 952.027 549.166C946.399 543.333 960.268 529.694 947.408 528.954C941.07 523.895 951.858 519.944 934.008 520.38C927.8 522.525 924.549 513.945 921.748 517.419C918.048 524.428 941.637 531.044 919.09 543.79C913.787 546.966 907.67 550.315 913.84 556.453C914.511 558.993 915.898 559.055 917.859 558.778C919.709 558.557 924.719 557.982 922.96 561.359C916.96 564.971 884.44 565.663 880.909 560.764C884.779 555.2 899.228 561.975 906.25 559.172C904.869 544.558 917.67 539.458 895.951 540.157C891.378 540.731 889.71 536.4 887.3 533.244C881.75 525.66 874.369 536.365 868.18 531.078C867.112 530.428 866.31 529.196 864.591 529.376C860.402 537.278 850.552 549.506 866.271 549.803C867.809 550.018 868.968 551.312 868.421 552.523C866.91 555.899 868.669 556.834 871.112 557.622C878.649 565.31 832.709 557.484 829.83 555.761C823.583 553.353 824.052 551.588 823.811 558.204C823.42 567.49 835.83 675.812 851.321 720.182ZM561.469 284.541C561.267 313.687 561.469 341.656 561.528 370.664C561.417 372.532 561.769 383.909 564.479 378.608C563.788 347.434 564.798 314.877 561.469 284.541ZM462.111 393.915C480.058 393.119 497.927 393.915 515.849 393.956C533.77 394.094 551.697 393.596 569.618 394.288C573.416 394.987 573.156 387.901 570.687 387.265C551.287 384.843 531.327 385.493 511.699 385.14C505.81 385.832 432.34 381.009 462.111 393.915ZM557.938 380.352C553.339 377.736 496.82 379.978 493.217 379.978C496.82 380.968 554.407 383.21 557.938 380.352ZM487.328 380.414C487.309 378.566 453.252 380.393 452.6 379.999C448.62 380.137 486.188 382.442 487.328 380.414ZM422.842 362.824C422.751 367.882 423.259 367.606 430.731 368.72C437.63 368.955 442.47 375.134 449.571 374.401C484.41 375.985 519.288 375.508 554.069 374.975C556.687 374.498 557.638 369.889 557.866 363.876C558.257 353.434 557.567 305.584 557.098 298.837C556.316 287.599 558.179 289.011 550.108 288.713C543.287 288.45 457.629 289.627 431.461 289.481C425.031 289.447 421.351 287.537 421.553 294.249C422.269 318.987 422.881 361.731 422.842 362.824ZM435.969 284.935C449.421 285.731 527.809 284.935 553.306 283.828C507.608 279.856 462.45 281.025 416.549 281.323C422.94 283.53 429.422 284.561 435.969 284.935ZM416.302 371.342C419.689 371.377 419.031 289.288 416.549 287.025C415.703 311.777 413.67 347.455 416.302 371.342ZM235.247 324.544C234.687 315.258 228.615 321.506 228.615 321.506C228.127 332.107 229.586 377.736 229.345 387.022C229.254 390.877 229.267 393.396 229.326 395.042C229.384 396.634 230.635 397.866 232.127 397.824C238.674 397.644 237.065 395.997 236.915 383.888C236.557 356.652 236.257 341.027 235.247 324.544ZM266.425 256.924C266.594 246.98 266.145 245.133 262.803 244.973C240.576 243.963 237.345 243.285 237.214 250.232C236.856 268.681 240.674 361.295 239.885 395.042C240.146 403.208 257.826 397.907 263.415 398.973C265.083 398.26 265.884 394.586 266.236 389.583C267.063 378.172 266.373 260.238 266.425 256.924ZM291.492 272.611C291.623 264.432 280.144 269.331 275.213 268.321C271.115 268.521 270.483 269.276 270.405 273.863C270.444 295.896 270.575 358.617 270.575 368.104C270.575 374.456 292.313 374.837 292.593 368.561C293.434 350.555 291.193 287.938 291.492 272.611ZM291.343 376.504C271.115 380.435 270.516 368.976 270.835 388.178C269.845 397.942 271.395 400.544 281.076 398.717C292.072 398.558 292.444 399.789 292.183 387.362C291.584 383.964 293.974 378.961 291.343 376.504ZM317.172 276.701C316.892 266.612 315.042 266.771 311.733 266.75C295.323 266.612 296.033 265.38 295.323 273.704C295.173 275.469 297.193 338.148 297.206 362.028C297.206 368.498 301.655 372.491 309.322 371.1C313.094 369.432 317.993 367.232 319.003 362.824C318.644 348.964 317.674 293.931 317.172 276.701ZM313.993 377.356C309.283 380.892 298.274 373.605 297.564 380.117C296.724 385.258 297.544 390.399 297.492 395.541C298.385 399.43 304.332 396.911 307.173 397.568C307.173 397.61 307.173 397.644 307.173 397.707C310.853 397.229 317.824 399.672 318.162 393.935C317.635 388.794 323.843 371.661 313.993 377.356ZM337.693 309.459C337.373 304.477 329.452 306.836 326.195 307.175C319.622 307.833 321.993 307.549 323.674 391.271C323.784 397.25 327.973 397.291 332.032 397.368C337.302 397.347 339.002 395.741 339.054 390.219C339.152 377.473 337.204 318.233 337.693 309.459ZM404.622 391.749C402.583 391.908 402.433 394.586 403.56 395.88C404.7 396.869 406.921 392.288 404.622 391.749ZM402.153 428.098C400.641 426.375 397.762 425.4 394.14 424.901C383.28 423.414 227.006 429.074 223.495 429.489C214.766 430.52 216.557 434.873 217.065 454.94C218.075 471.499 216.785 488.079 216.955 504.638C216.375 509.163 220.485 509.938 223.827 510.312C267.265 511.267 310.834 512.699 354.141 515.038C367.222 515.121 380.29 515.197 393.371 515.26C398.14 514.664 409.631 519.086 409.95 511.308C410.419 483.034 408.419 455.535 402.153 428.098ZM196.936 710.632C196.988 713.933 197.438 714.604 200.297 714.722C205.418 713.829 216.557 718.514 216.505 709.899C216.616 702.557 216.036 695.187 216.127 687.88C216.557 651.371 215.404 585.26 215.404 569.102C215.404 559.096 215.606 551.768 216.635 550.163C218.746 550.716 218.505 553.913 218.688 555.74C217.886 569.877 218.837 653.198 219.606 681.016C218.577 691.437 226.244 689.97 233.436 690.6C236.557 693.859 226.016 694.274 224.296 694.219C218.056 693.16 220.186 710.598 221.827 714.168C278.815 717.621 409.989 715.794 414.563 715.677C419.09 715.538 421.409 714.487 422.451 709.484C422.693 708.314 422.022 511.883 422.061 507.253C422.119 498.839 421.09 490.757 416.413 483.872C415.703 487.38 415.181 490.978 414.83 494.653C412.66 516.45 415.892 649.33 414.901 692.565C414.791 694.613 413.95 695.644 412.791 696.08C411.221 696.654 333.543 698.066 303.902 695.305C287.773 693.776 268.653 696.654 253.956 692.489C264.406 690.281 277.454 692.288 288.646 693.008C323.074 695.741 400.062 693.402 403.853 693.084C407.67 692.765 410.641 691.119 410.602 685.562C410.511 653.994 411.11 550.675 410.791 530.566C409.84 520.2 411.273 519.764 400.27 519.806C358.832 517.938 317.244 517.64 275.806 515.792C257.416 515.737 238.817 514.083 220.525 514.941C215.847 516.664 218.746 523.418 218.056 527.411C217.945 532.428 213.978 529.653 214.616 526.02C214.147 493.912 212.505 461.791 213.137 429.69C213.215 426.098 214.727 424.59 218.036 425.42C235.677 425.974 379.372 422.009 391.593 421.87C402.101 421.725 401.742 421.829 402.55 411.262C403.371 400.364 403.762 401.063 393.69 400.786C365.731 398.516 209.268 403.284 202.805 403.083C193.288 402.786 193.516 404.73 193.438 409.477C192.487 474.218 196.897 673.051 196.936 710.632ZM164.247 483.532C164.976 486.965 162.677 489.193 159.237 489.048C105.969 488.259 58.798 490.598 4.38965 489.068C-15.0493 489.034 -43.3674 489.269 -64.207 490.777C-67.6857 491.573 -67.4968 487.421 -67.2559 484.944C-66.5458 465.859 -72.9558 350.119 -72.5585 311.147C-72.4478 299.411 -69.8485 293.419 -66.1678 298.359C-60.9889 298.436 128.157 297.287 159.498 300.103C163.576 300.899 164.546 302.408 164.716 306.857C167.947 359.032 165.367 411.069 164.097 463.244C163.908 469.99 162.827 476.703 164.247 483.532ZM9.51001 482.82C13.4904 485.38 65.0583 484.882 83.8784 483.512C89.5199 483.097 92.028 476.204 91.7283 468.6C90.2886 454.684 84.0673 437.966 70.1591 433.938C51.6711 427.96 26.2911 424.009 11.1321 439.495C-1.75989 451.729 -2.78918 474.917 9.51001 482.82ZM-18.7495 367.647C-15.1276 385.196 -1.29736 402.114 7.00195 418.632C12.7216 429.413 17.7311 428.34 27.7112 424.327C21.731 413.843 22.1609 401.16 14.9821 391.866C5.64038 381.528 -5.66858 371.578 -18.7495 367.647ZM14.1808 384.248C14.2915 370.747 12.1614 360.105 -0.470093 355.06C1.66016 366.457 4.9303 376.103 14.1808 384.248ZM36.7596 423.891C42.9484 424.763 38.2516 410.889 45.1503 404.972C50.3488 397.347 46.9092 387.597 40.3817 379.563C26.5712 362.568 20.2196 350.099 14.2003 343.961C14.8518 358.257 24.91 419.725 36.7596 423.891ZM37.1311 366.395C44.7203 356.036 46.2903 344.341 37.1311 333.816C34.9097 347.061 23.4508 357.738 37.1311 366.395ZM43.2611 368.443C38.8313 376.94 50.4401 383.473 52.3683 392.088C66.6478 379.715 61.28 356.313 55.0392 339.117C50.4596 349.697 47.6193 358.631 43.2611 368.443ZM49.8796 423.87C71.3707 431.219 74.1785 383.369 75.9504 368.484C74.2697 346.085 69.8789 370.567 66.9083 377.515C66.6283 387.479 32.1019 422.244 49.8796 423.87ZM65.0583 426.098C79.2076 434.298 95.5978 400.703 92.2299 388.808C77.9503 396.274 74.0677 413.055 65.0583 426.098ZM160.318 312.614C159.778 303.798 159.159 303.044 150.599 302.947C134.717 302.767 -55.2562 301.335 -60.7089 301.536C-64.6566 301.674 -67.6987 302.864 -67.816 306.815C-69.0668 336.598 -63.067 464.787 -63.6467 477.339C-63.3275 481.027 -64.7867 487.068 -59.3473 486.612C-42.2274 487.484 -25.0685 484.487 -7.98767 485.415C-5.79883 485.774 0.259521 485.678 -0.867432 482.162C-11.4274 464.295 -2.95862 443.688 10.6825 430.88C-6.91943 411.325 -18.7495 385.673 -28.0195 360.603C-28.4885 351.206 -10.0984 368.955 -4.09863 368.443C-1.51892 359.807 -11.1082 352.14 -7.70764 344.895C-0.619995 344.224 4.01184 355.794 11.1907 356.209C13.2493 350.97 2.33118 329.768 11.2102 332.744C15.1124 334.91 23.3204 355.835 26.8904 347.497C31.1508 340.349 32.4016 308.684 41.3915 330.82C43.3392 334.114 43.45 338.764 47.6517 340.411C50.681 336.536 49.2999 331.595 50.7787 327.284C59.6709 316.545 63.3711 355.399 65.9703 360.88C71.0907 359.15 67.3905 349.483 72.778 348.251C86.7904 354.029 78.7581 380.096 80.048 392.025C90.0801 389.285 92.6273 372.747 97.3176 374.117C104.21 392.6 93.7086 418.867 78.478 431.081C91.6891 443.965 101.519 465.804 92.0995 483.609C105.018 485.2 148.938 484.425 153.198 484.681C157.198 484.923 160.468 484.384 159.908 480.834C160.657 424.707 164.787 368.72 160.318 312.614ZM165.295 270.445C165.159 280.811 164.208 290.243 159.537 289.108C119.388 291.031 73.4098 291.53 34.7012 290.042C-1.77954 290.277 -31.6676 289.786 -67.0864 289.364C-73.6855 287.578 -73.8483 290.914 -73.6659 270.424C-73.5356 255.118 -71.1774 159.148 -71.2361 124.839C-70.8582 120.431 -67.9658 119.283 -64.2461 119.338C-59.0868 119.4 111.297 121.566 164.768 122.12C171.406 118.508 168.865 130.382 169.367 134.389C167.667 171.873 165.406 260.82 165.295 270.445ZM97.7476 277.095C97.9886 280.292 98.9072 282.077 102.21 277.254C108.229 270.265 108.939 270.383 103.317 261.47C99.3502 255.076 97.9886 256.626 97.5587 260.259C97.2394 262.999 97.5391 274.597 97.7476 277.095ZM93.2201 253.076C93.7087 246.683 86.7186 236.836 81.468 234.628C78.1392 242.572 80.2303 252.378 79.1489 260.993C79.9502 268.3 86.6405 273.621 90.9595 279.219C94.4382 270.84 92.1973 261.885 93.2201 253.076ZM23.1902 286.229C44.9614 286.271 66.7 286.983 88.458 287.578C89.5199 287.62 90.0997 286.167 89.5394 285.378C64.6609 255.692 42.4989 224.325 19.4901 193.02C16.8518 222.021 19.3597 248.904 18.1221 277.635C18.1416 282.14 17.64 286.845 23.1902 286.229ZM74.3283 224.92C72.4783 221.308 58.2703 199.69 59.4299 214.72C60.7979 225.121 55.391 236.517 63.5601 244.676C76.009 262.01 74.3478 253.789 75.1296 237.888C75.071 237.888 75.0188 237.888 74.9602 237.888C74.6605 233.556 75.7811 228.67 74.3283 224.92ZM39.9518 203.835C36.6815 213.149 46.9808 222.581 52.6093 228.67C55.0587 220.65 54.8502 209.793 54.8502 201.517C52.6093 197.704 46.1405 187.955 41.6912 187.892C39.4502 192.819 41.2091 198.812 39.9518 203.835ZM21.542 183.27C20.3303 189.069 28.1802 194.307 30.6101 199.428C36.3818 208.347 35.1897 190.003 36.219 186.543C36.9486 170.621 28.8903 173.721 21.542 183.27ZM-7.83789 177.416C-7.14734 211.364 -6.24841 245.368 -6.52844 279.379C-6.41772 281.8 -7.12781 285.835 -3.90979 286.008C0.93042 285.516 9.92029 288.672 12.5521 283.627C14.7019 253.748 14.9496 170.164 14.4609 161.39C14.259 157.681 14.6694 157.258 2.52002 156.705C-10.7173 156.131 -7.68811 158.393 -7.83789 177.416ZM-18.7495 286.527C-11.8899 286.686 -12.0787 285.274 -11.968 281.641C-11.3491 262.979 -11.6683 191.408 -11.7986 153.293C-11.8378 143.322 -14.1895 145.37 -41.5173 145.37C-39.4979 189.961 -39.4392 236.773 -41.8365 282.416C-41.8365 286.547 -35.9476 286.146 -18.7495 286.527ZM-65.3275 285.932C-46.3575 286.727 -44.7876 289.765 -45.7582 267.906C-43.9473 256.744 -54.5266 268.044 -69.5164 257.9C-70.5065 282.714 -73.4379 284.638 -65.3275 285.932ZM-70.246 242.434C-70.3372 247.776 -68.1157 251.942 -64.3763 253.512C-51.2368 257.623 -41.4587 253.727 -44.2469 237.625C-42.6575 204.431 -45.6279 171.437 -46.1361 138.361C-46.1361 134.928 -47.3478 134.389 -49.6669 134.209C-54.8589 134.887 -66.2656 128.832 -66.8063 137.509C-67.8486 161.909 -69.9658 227.024 -70.246 242.434ZM160.507 125.953C157.889 125.594 -15.4988 125.116 -65.1973 124.445C-70.6758 131.434 -51.6082 128.237 -47.8363 129.725C-41.5695 129.545 -42.8788 135.42 -41.2567 140.007C-10.17 141.897 -8.00732 137.862 -8.50891 147.993C-8.13757 152.276 -8.02026 152.2 -3.85754 152.338C21.2098 153.432 17.3794 150.096 18.7996 175.983C18.7996 175.983 18.7996 175.983 28.3691 167.783C33.9716 164.351 50.7982 187.159 113.929 266.715C116.848 270.383 113.877 272.431 109.93 276.5C100.588 286.111 99.6302 287.08 104.379 287.08C121.747 286.907 139.166 285.378 156.547 284.7C160.618 284.762 161.426 280.333 161.406 275.13C161.387 269.912 164.748 173.264 165.589 129.725C164.976 127.206 162.918 126.292 160.507 125.953ZM163.256 687.05C163.256 694.177 162.488 700.571 158.006 700.37C112.438 703.63 68.0289 704.045 22.1414 703.643C-7.12781 702.156 -37.7585 705.034 -66.6368 702.571C-69.6661 702.315 -71.9982 699.658 -71.9657 696.419C-71.8158 676.366 -72.1676 655.087 -70.6888 634.778C-69.8159 593.501 -73.1057 552.045 -70.4674 510.769C-70.6172 506.582 -64.9366 505.274 -57.9271 504.915C-49.1783 504.479 136.639 504.776 149.628 504.416C158.657 504.16 165.706 504.755 164.996 507.814C163.426 561.553 163.256 680.455 163.256 687.05ZM102.549 645.413C93.4481 651.212 86.419 661.26 80.9404 671.044C78.048 674.38 98.1384 687.548 101.168 692.71C108.438 700.17 105.128 647.835 102.549 645.413ZM-63.5491 698.523C-9.34924 700.509 45.5216 701.72 99.6303 699.796C92.6078 689.707 81.429 675.431 68.4589 674.58C57.8794 674.56 44.7008 677.618 35.3591 672.615C89.2007 667.273 63.7294 681.313 96.3275 643.967C100.94 639.635 98.829 637.214 93.409 637.816C41.2808 638.57 -10.9192 635.248 -62.9758 637.179C-64.5067 642.044 -56.6764 645.836 -54.2465 649.607C-49.3672 654.451 -44.6573 659.412 -41.8887 666.041C-41.2177 667.674 -39.8887 667.474 -38.677 667.571C-33.7977 668.664 -27.2573 667.197 -23.1793 669.813C-24.5083 673.411 -29.1791 671.127 -32.0585 671.722C-47.0286 668.429 -51.6864 687.562 -62.7869 694.752C-63.7576 695.547 -65.4969 697.907 -63.5491 698.523ZM-66.8779 611.804C-66.8063 611.804 -66.7281 611.804 -66.6565 611.804C-65.6663 617.679 -68.8975 626.896 -64.8976 631.083C-60.9172 632.633 -63.067 591.197 -65.8486 592.927C-68.4869 597.944 -66.1157 605.846 -66.8779 611.804ZM-66.8975 586.194C-54.8784 589.073 16.9493 585.737 39.4305 585.461C42.6487 585.897 43.0005 582.125 42.7595 579.482C42.4598 571.78 41.8214 571.227 34.5317 572.002C10.9105 571.164 -41.7192 570.825 -57.9467 571.241C-67.1384 571.462 -67.1385 568.466 -66.8975 586.194ZM-58.989 628.875C-58.7676 632.508 -58.7675 632.508 -54.2465 632.335C-51.4388 632.231 9.32104 632.155 33.9194 633.505C43.1112 632.847 35.0204 601.542 35.1116 594.013C35.0204 588.99 30.8315 590.201 27.392 590.464C-0.157471 593.301 -27.8567 592.623 -55.4778 591.771C-62.7087 591.536 -61.0867 594.906 -58.989 628.875ZM-68.1677 656.374C-65.9658 683.472 -77.0664 708.017 -48.5985 672.677C-42.7095 661.855 -59.3081 653.157 -64.7672 645.573C-70.2458 642.3 -67.588 653.316 -68.1677 656.374ZM153.798 508.271C148.527 508.61 -6.63928 507.08 -61.269 509.025C-65.5881 509.184 -66.0571 509.419 -66.2787 513.453C-68.4674 531.258 -68.2589 544.8 -68.2589 568.168C-29.7393 567.732 2.10962 567.573 37.991 567.234C46.6616 567.213 45.5085 566.936 46.0884 574.936C46.3098 578.195 46.7985 581.426 46.8701 584.706C47.9189 592.166 38.46 588.381 39.9192 595.128C44.5183 653.835 37.3395 627.65 98.158 633.878C106.907 632.114 107.578 644.03 107.819 650.638C112.887 707.719 93.8976 702.156 154.449 696.717C157.576 696.398 159.198 691.257 159.967 683.811C161.869 665.509 159.087 540.489 161.029 516.927C161.198 510.312 160.996 507.336 153.798 508.271ZM-116.277 724.811C-116.016 726.977 -113.456 727.032 -111.866 726.977C-93.5349 725.662 -73.946 727.966 -56.2789 723.06C-62.3179 719.649 -88.2062 728.88 -87.0857 717.739C-86.7665 711.663 -81.3074 119.304 -80.9882 110.903C-80.7275 104.052 -81.8154 102.945 -69.9462 102.862C1.97278 102.309 156.527 103.201 170.826 103.457C181.138 103.658 180.787 107.706 180.806 115.532C180.826 124.521 177.855 312.815 177.536 384.144C176.598 486.051 178.376 587.744 176.057 689.569C176.207 713.296 178.415 716.77 165.048 716.971C161.406 717.026 42.7009 719.31 -8.54797 723.621C5.4906 724.887 19.7311 725.448 34.0498 725.524C69.0581 725.683 158.996 720.147 170.917 720.126C179.327 720.105 185.216 719.469 181.907 716.749C179.868 716.057 179.347 714.528 179.367 712.362C178.767 679.127 181.236 453.058 180.396 373.224C181.327 294.484 185.067 116.999 184.278 108.204C183.907 104.032 180.676 100.835 176.748 100.779C136.039 100.184 -78.0762 100.046 -80.4475 99.7067C-82.4279 99.4299 -84.2063 101.035 -84.2584 103.16C-84.9359 125.296 -90.7076 703.367 -90.2972 709.581C-89.3982 723.005 -90.5773 724.929 -114.277 722.963C-115.378 723.039 -116.355 723.496 -116.277 724.811ZM-56.2074 723.06C-56.2269 723.06 -56.266 723.081 -56.2789 723.081C-56.2073 723.122 -56.0966 723.164 -56.0184 723.219L-56.2074 723.06ZM1050.6 302.387C1049.16 310.67 1041.12 311.147 1034.41 311.362C1034.13 311.362 870.349 306.2 847.842 305.528C822.442 304.774 817.622 304.096 817.622 290.54C817.622 273.088 813.85 26.8277 813.85 23.0357C813.863 2.78152 816 0.594874 826.24 1.17614C832.39 1.50829 1008.64 0.0828135 1016.86 0.47724C1026.1 0.913186 1035.26 2.18642 1044.11 4.90589C1048.06 7.25169 1048.58 12.7875 1048.41 18.8215C1048.24 24.8625 1052.11 172.288 1052.95 240.586C1052.92 240.586 1052.9 240.586 1052.86 240.586C1051.96 261.117 1055.01 282.236 1050.6 302.387ZM1047.8 169.451C1047.31 117.975 1045.98 64.665 1043.5 12.9467C1040.88 8.17894 1034.64 5.88158 1026.77 4.84361C1009.03 2.52549 838.071 4.86437 829.152 5.00277C822.482 5.10657 817.641 6.63584 817.641 12.3516C817.622 94.8629 819.153 230.899 821.602 293.197C821.772 297.647 824.951 298.892 829.139 299.252C877.639 302.788 1011.89 308.981 1029.89 307.75C1039.42 307.092 1046.52 304.276 1047.46 296.83C1050.77 254.287 1047.27 212.174 1047.8 169.451ZM753.103 638.169C753.891 650.202 755.162 659.391 757.364 652.423C757.044 636.162 750.843 466.897 750.673 431.835C751.103 424.431 744.335 422.203 735.794 421.746C725.313 421.192 621.825 419.705 580.217 421.171C633.245 427.067 688.194 422.403 741.853 426.929C745.983 427.026 746.374 427.586 746.693 431.42C746.862 489.629 752.224 624.751 753.103 638.169ZM400.4 211.779C384.551 210.368 368.871 215.212 352.943 214.277C345.894 214.499 345.803 211.44 345.784 206.977C345.634 177.568 333.523 147.571 343.842 147.294C366.121 148.048 366.532 151.923 366.923 141.495C366.903 133.856 368.59 133.973 373.991 133.953C382.323 133.911 381.15 133.953 380.323 144.139C379.821 150.491 378.57 148.484 398.14 148.546C411.703 148.588 407.279 152.871 411.051 201.476C411.592 208.382 408.791 213.627 400.4 211.779ZM373.502 138.817C370.923 139.094 370.343 139.039 370.291 141.004C370.252 142.27 369.483 154.484 369.483 157.245C369.483 160.857 374.382 161.39 375.033 157.84C375.483 155.418 375.841 143.682 375.913 141.26C375.971 139.689 374.962 138.797 373.502 138.817ZM407.091 198.217C407.201 184.163 404.713 170.067 403.742 156.013C401.99 149.501 385.222 152.851 379.724 152.698C378.043 156.885 378.642 164.054 372.812 163.175C370.232 162.822 366.454 162.981 366.213 159.244C365.952 157.418 366.903 153.985 364.473 153.626C344.793 151.903 342.402 147.993 343.282 157.245C343.992 174.911 349.054 190.736 349.692 208.901C366.141 211.399 381.372 206.396 397.521 207.448C407.312 207.053 407.091 208.52 407.091 198.217ZM506.39 140.187C506.82 146.996 504.878 150.332 497.289 150.332C479.44 149.501 463.74 150.034 445.851 148.726C440.62 148.685 439.702 144.734 439.721 140.07C439.721 136.257 438.959 106.377 438.34 100.101C437.05 86.9605 438.711 86.7806 465.85 87.9154C473.59 87.4172 464.919 73.0864 472.391 72.3667C481.798 72.3667 482.019 71.8754 483.309 75.8058C483.459 87.9362 481.798 87.9362 487.999 87.1404C494.038 87.2373 500.207 86.0679 506.487 88.8634C508.188 97.0841 506.057 134.79 506.39 140.187ZM478.521 80.5667C478.43 78.8782 477.049 77.8264 475.498 77.7295C472.469 78.6222 474.228 84.5801 473.498 86.9605C474.15 89.8391 472.619 98.3989 476.039 98.1359C480.638 95.2573 478.299 85.6873 478.521 80.5667ZM503.588 91.5691C503.588 91.5691 482.039 89.4793 481.778 94.6415C481.42 103.277 481.511 103.679 473.381 103.222C465.831 104.032 472.28 93.0984 466.391 92.4202C448.451 93.8526 440.47 83.8051 443.291 108.46C444.21 122.141 443.91 130.68 444.431 136.036C445.03 141.897 446.62 143.959 451.962 144.775C456.822 145.529 489.778 146.464 495.198 146.325C499.048 146.221 502.071 145.329 502.878 142.194C504.787 127.4 502.787 106.495 503.588 91.5691ZM483.498 718.334C493.83 718.673 492.54 717.386 492.26 707.318C491.941 695.983 487.98 695.603 506.409 696.281C533.307 697.27 560.238 696.419 587.155 696.461C590.777 697.035 597.826 695.09 598.197 700.647C599.507 705.47 595.865 714.943 600.796 717.123C614.105 717.524 627.375 716.369 640.665 715.995C652.814 723.898 573.508 719.988 567.619 721.752C525.679 720.839 483.439 725.482 441.851 720.763C454.939 715.123 469.42 717.884 483.498 718.334ZM495.628 705.394C496.279 719.213 493.83 718.812 499.738 718.618C509.158 718.299 582.986 718.237 585.018 718.279C593.507 718.396 593.507 718.396 594.757 714.583C593.937 702.73 595.865 700.232 583.898 700.571C571.338 700.253 522.93 699.934 509.96 699.734C494.038 699.498 495.328 698.959 495.628 705.394ZM988.306 721.116C1000.1 726.181 1019.78 723.123 1030.19 723.994C1037.52 721.711 1106.57 727.15 1095.6 719.787C1073.64 718.812 1051.68 720.182 1029.65 719.704C1016.51 721.157 999.725 716.473 988.306 721.116ZM755.312 693.361C755.383 693.361 755.474 693.361 755.553 693.361C756.412 698.862 753.181 713.456 758.171 715.455C760.223 714.03 760.002 711.663 759.754 709.581C757.142 697.768 761.402 682.683 757.083 672.394C753.103 677.341 756.263 686.891 755.312 693.361ZM905.918 487.366L905.657 486.847L905.508 487.421L905.918 487.366ZM390.511 607.971C393 630.488 404.511 602.933 397.593 595.626C391.801 590.346 391.013 604.282 390.511 607.971ZM301.635 440.035C298.534 446.685 309.303 446.408 313.094 446.982C333.172 446.166 308.554 428.223 301.635 440.035ZM256.836 308.961C253.233 303.618 258.354 298.124 256.914 292.381C256.184 288.132 255.175 283.869 257.513 279.78C255.546 275.427 260.614 258.536 253.846 260.418C250.953 261.768 250.354 263.041 251.025 266.058C254.875 280.174 249.794 295.342 252.295 309.355C254.706 314.759 250.015 319.679 251.716 325.243C253.325 332.647 248.745 339.657 251.266 346.957C253.526 352.576 250.725 358.139 251.194 363.855C251.246 365.184 251.435 366.713 250.953 367.848C248.484 373.584 250.953 379.023 251.644 384.566C252.803 388.413 256.966 386.884 256.523 382.995C256.184 380.137 254.764 376.345 255.285 373.543C257.826 366.713 255.435 359.468 257.096 352.541C257.846 347.656 253.956 342.431 256.237 337.408C257.604 333.837 258.054 330.183 256.855 326.274C254.504 320.434 260.686 314.579 256.836 308.961ZM72.589 472.115C71.931 473.464 73.4293 474.834 74.6084 473.921C85.9695 468.087 79.5203 444.616 68.0809 442.948C60.8304 444.318 82.7905 455.577 72.589 472.115ZM-29.5374 207.593C-28.8599 215.751 -28.5471 224.269 -29.5178 232.504C-30.1887 238.42 -26.2997 244.081 -29.837 249.914C-27.368 256.031 -31.8174 266.888 -26.1499 270.445C-24.0782 270.542 -22.4692 267.982 -23.0295 265.878C-24.9382 261.733 -21.9677 257.221 -23.9872 253.111C-24.7168 251.547 -24.619 249.914 -23.6874 248.447C-21.707 245.389 -21.7982 242.33 -23.5376 239.258C-27.1466 234.628 -22.0588 230.006 -23.707 225.183C-26.5082 220.65 -20.4368 217.239 -23.3682 213.053C-27.2899 208.105 -21.5573 201.815 -25.9674 196.909C-29.9087 191.726 -21.4073 188.349 -24.0587 182.751C-24.9773 180.211 -24.4497 178.066 -23.1077 175.824C-22.8796 172.904 -26.5082 170.364 -24.2672 167.424C-22.7494 164.863 -21.5573 157.556 -24.58 156.525C-26.5472 155.715 -30.0781 156.906 -29.5765 159.487C-27.557 162.663 -29.7979 165.894 -29.2898 169.036C-28.7687 172.254 -27.9088 175.409 -29.4071 178.627C-29.6285 183.228 -27.5765 187.699 -31.0292 191.843C-33.4591 196.95 -27.4983 201.953 -29.5374 207.593ZM-4.71741 671.328C4.44177 675.535 18.1807 672.041 28.8121 672.733C21.0991 670.055 1.69275 669.937 -4.71741 671.328ZM1030.84 268.701C1032.21 253.492 1032.58 197.407 1032.34 184.938C1032.23 179.339 1031.74 173.9 1030.51 168.759C1028.7 170.8 1028.21 175.727 1028.15 181.36C1028.08 189.089 1029.87 251.07 1026.42 274.576C1025.7 279.399 1019.65 281.088 1012.6 281.724C1004.88 282.416 901.951 280.292 853.979 279.898C842.67 279.794 842.24 274.334 841.829 270.604C841.191 264.847 841.94 127.24 839.562 88.2683C838.689 87.1197 837.132 87.8739 836.95 89.3617C836.742 112.059 838.5 234.393 838.37 272.687C837.25 287.461 853.23 284.997 862.688 285.039C915.37 284.285 971.896 289.329 1020.83 284.679C1029.95 283.807 1030 277.967 1030.84 268.701ZM1028.84 107.81C1027.05 82.5526 1029.7 57.0187 1029.14 31.81C1029.07 28.3916 1026.45 25.6721 1023.24 25.769C992.866 26.627 957.708 22.3991 925.93 25.3746C938.249 30.3776 951.858 26.8277 964.737 27.838C983.479 26.807 1001.97 30.6751 1020.66 29.6856C1025.2 29.1666 1026.13 30.4191 1026.04 35.2214C1025.65 70.9412 1022.98 106.495 1028.68 141.952C1031.24 130.756 1028.94 119.262 1028.84 107.81ZM910.928 25.6929C889.098 21.2089 865.17 23.6654 842.761 24.0667C831.602 23.9491 838.071 58.8109 837.641 67.4468C842.272 58.0566 834.572 33.2977 843.08 28.9521C865.62 25.3192 888.349 28.7307 910.928 25.6929ZM396.681 168.898C395.013 167.486 393 166.69 390.941 167.527C382.811 170.821 374.421 170.427 365.991 169.846C356.721 172.648 374.382 175.866 377.632 175.008C381.652 174.295 386.42 174.973 390.7 172.807C392.583 171.852 394.251 173.444 395.912 172.724C397.332 172.171 397.801 169.984 396.681 168.898ZM398.003 184.938C398.511 183.131 397.391 180.966 395.69 180.37C390.831 180.689 385.691 181.761 380.622 181.561C373.072 186.211 388.362 186.667 391.111 186.605C391.111 186.543 391.111 186.508 391.111 186.446C393.352 185.948 396.902 187.795 398.003 184.938ZM359.412 194.646C355.783 198.652 362.623 198.673 365.483 198.832C374.102 198.355 365.672 189.684 359.412 194.646ZM394.713 194.625C387.652 194.784 393.99 200.618 397.671 199.49C401.951 197.462 397.332 194.404 394.713 194.625ZM495.198 112.294C491.98 102.648 477.29 113.484 470.15 110.329C464.88 113.346 472.938 114.854 475.218 115.152C480.879 114.653 485.719 111.2 491.1 114.577C492.859 115.608 494.449 114.46 495.198 112.294ZM495.419 124.223C494.13 122.48 490.599 122.597 489.289 122.736C472.039 121.684 498.879 133.537 495.419 124.223ZM940.607 56.1468C960.528 70.1662 946.06 101.693 941.637 122.3C941.467 123.116 942.79 123.435 943.187 123.234C997.986 64.7827 1043.22 107.09 964.567 133.316C921.748 142.789 978.189 142.111 991.706 174.08C999.126 193.989 981.518 195.857 969.108 187.124C962.847 183.173 949.317 171.16 945.988 165.541C949.858 180.467 962.847 211.302 950.229 226.373C941.637 233.459 931.67 231.992 924.927 223.474C909.227 204.133 920.999 178.585 923.298 157.12C921.637 157.141 920.549 158.276 919.709 159.563C912.459 171.098 905.82 183.27 894.928 191.449C887.261 197.165 877.209 202.251 867.692 199.255C851.94 186.82 888.238 152.221 908.367 145.827C912.81 144.415 917.488 142.471 913.058 140.983C861.431 134.292 845.282 93.4928 868.219 92.3441C874.421 92.0258 893.99 95.1604 917.26 120.854C918.569 122.3 919.729 124.189 922.009 124.03C918.869 114.598 909.99 89.68 915.188 71.6747C918.791 59.1638 928.477 47.6078 940.607 56.1468ZM913.449 154.781C913.26 154.518 913.318 154.366 913.638 154.103C913.787 153.549 891.209 166.752 891.58 166.337C899.241 157.999 914.55 150.712 914.797 149.834C894.12 154.421 873.079 167.444 866.799 190.058C866.519 191.013 866.571 191.864 866.819 192.598C867.249 192.3 874.349 189.857 874.011 190.238C870.851 193.829 868.258 193.947 867.861 194.231C868.499 194.847 869.34 195.303 870.239 195.601C870.48 195.476 870.701 195.317 870.929 195.158C870.949 195.144 870.981 195.123 871.001 195.103C871.02 195.082 879.3 188.633 879.04 189.103C878.46 190.155 873.659 195.04 872.851 195.933C873.209 195.919 873.561 195.878 873.9 195.774C891.111 192.598 899.768 188.335 916.55 157.162C916.738 156.885 894.12 178.025 894.16 177.43C894.199 176.814 912.96 155.155 913.449 154.781ZM871.489 96.7451C870.219 96.9042 870.219 98.2605 872.949 100.696C873.489 101.139 876.291 102.841 875.88 104.191C873.581 103.776 869.972 100.502 868.089 99.3677C866.74 98.6964 865.679 98.5165 864.832 98.6757C865.991 101.257 868.35 105.824 871.691 108.917C872.61 109.754 865.972 108.183 863.229 99.686C861.509 102.011 862.552 107.505 864.819 110.073C870.161 119.56 891.99 133.136 905.84 134.451C908.68 134.728 912.27 135.461 914.23 134.548L892.961 121.885C895.43 119.463 915.787 134.569 917.221 134.015C916.699 133.081 896.218 116.183 894.72 111.159L918.647 131.116C919.52 125.552 887.71 94.7037 871.489 96.7451ZM1000.85 108.045C1001.43 106.336 996.038 110.529 990.058 112.93L999.478 103.52C999.739 102.17 999.797 101.194 999.686 100.461C999.367 98.2397 990.898 104.89 988.788 105.367C986.547 105.879 994.807 97.9422 994.807 97.9422C981.498 94.2678 955.278 114.259 949.219 123.234C947.767 125.379 967.388 115.311 969.258 116.183C969.017 116.639 947.5 127.524 946.548 128.694C946.548 128.77 949.708 129.344 949.688 129.427C956.118 127.261 975.538 119.739 976.117 119.975C975.687 121.725 947.597 133.081 946.64 134.292C946.607 134.347 946.587 134.389 946.568 134.43C953.597 135.025 997.126 118.868 1000.85 108.045ZM989.166 186.806C990.469 185.989 977.479 179.678 976.248 175.845C977.257 175.229 989.856 182.177 989.986 181.305C990.749 175.845 985.609 171.513 983.667 169.534C977.648 165.223 971.166 167.742 970.456 164.109C971.316 164.054 979.876 164.981 980.736 164.926C969.968 154.802 957.219 149.238 943.018 144.318C944.288 148.643 967.349 157.736 967.199 161.791C966.717 161.805 948.268 152.38 947.819 152.518C947.78 152.615 947.708 152.698 947.669 152.774C955.336 159.583 962.939 166.476 970.437 173.499C971.329 174.357 956.268 166.351 946.307 154.124C942.158 161.507 974.586 195.954 989.166 186.806ZM921.65 188.349C920.269 203.759 924.178 222.775 935.07 225.217C938.92 226.927 939.878 223.252 940.998 219.64C941.747 221.668 941.819 224.526 944.21 223.633C959.037 212.437 946.118 172.966 938.08 159.224C938.288 168.994 943.838 199.469 944.347 210.153C938.627 202.846 940.868 168.856 934.067 163.099C933.819 175.409 932.829 187.719 931.057 199.884C930.868 201.137 929.07 200.604 929.259 199.351C931.22 185.733 932.21 171.97 932.249 158.213C932.139 158.435 931.969 158.573 931.748 158.649C931.709 158.947 931.67 159.224 931.598 159.521C931.487 160.04 926.438 182.197 925.95 182.059C925.429 181.9 929.689 159.521 929.787 159.009C929.8 158.85 929.839 158.691 929.859 158.511C929.8 158.469 929.728 158.469 929.67 158.414C929.37 158.117 929.148 157.777 928.96 157.397C925.637 166.116 922.217 182.121 921.65 188.349ZM926.608 60.9699C923.298 62.5614 925.709 66.1113 921.39 65.3432C915.449 71.3149 916.569 109.754 927.259 121.684C925.969 114.238 923.637 91.0916 924.197 91.0916C926.38 91.0916 931.148 124.307 932.679 124.819C933.357 125.061 931.279 101.713 934.327 100.067C934.347 100.205 934.588 125.019 934.627 125.158C934.777 124.922 934.907 124.722 935.057 124.521C941.037 120.694 954.828 68.6923 940.438 64.0492C939.949 67.8619 939.819 71.7924 937.337 76.7193C938.36 72.4844 938.979 64.5059 936.888 61.0529C935.819 59.3022 934.067 58.7071 931.298 60.3748L933.279 71.4948C929.689 66.5887 927.598 60.5132 926.608 60.9699Z" fill="#FFDF58"/>
</g>
</svg>
